<?xml version="1.0" standalone="no"?>
<!DOCTYPE svg PUBLIC "-//W3C//DTD SVG 1.1//EN" "http://www.w3.org/Graphics/SVG/1.1/DTD/svg11.dtd">
<svg xmlns="http://www.w3.org/2000/svg" id="Capa_1" data-name="Capa 1" viewBox="0 0 1833 520.38" width="1833" height="520.3800048828125"><defs><style>.cls-1{fill:#970954;}</style></defs><path class="cls-1" d="M741,163.12v3.63l-.48,1.45-5.93,3.5a7.51,7.51,0,0,0-2.54,2.06c-.23.48-.54,2.88-.9,7.19s-.54,9.58-.54,15.78a212.78,212.78,0,0,0,1.32,22.85l-.72,1.21a188.61,188.61,0,0,1-68.07,12.7q-26.86,0-48.49-10.15a80.14,80.14,0,0,1-34.34-30.11q-12.7-19.95-12.71-47.4,0-41.84,28.6-66.51t74.67-24.66q33.85,0,60.82,11.48l.84,1.34q-2.16,8.08-5.07,34l-1,.85h-5.56l-1-1-.6-12.82q-.37-6.29-.79-7.37a8.65,8.65,0,0,0-2.6-2.85c-1.45-1.16-5.18-3-11.18-5.55a89.7,89.7,0,0,0-18.08-5.57,102.46,102.46,0,0,0-19.47-1.75q-22.12,0-39.17,9.19a59.38,59.38,0,0,0-25.7,26.78q-8.64,17.6-8.64,39.12A93.47,93.47,0,0,0,603,181.92a70.55,70.55,0,0,0,26.72,29.93q17.41,10.76,40.5,10.76a110.19,110.19,0,0,0,20.5-2A61.16,61.16,0,0,0,708,215c.71-2.58,1.08-7.78,1.08-15.59V186c0-6.36-.4-10.34-1.21-11.91s-2.8-2.68-6-3.32-10-1.05-20.62-1.21l-1.08-1.09v-5.32l1.08-1.09,7.39.24q19,.61,31,.61,6.9,0,20.19-.73Z"/><path class="cls-1" d="M757.68,59l1-.84q41.49.72,53.08.72,39.67,0,70.62-.72L883,59q-3,11.61-4.47,36.4l-.73,1h-5.93l-1.09-1a18.17,18.17,0,0,0,.13-1.94,118.5,118.5,0,0,0-1.57-19.59q-7.63-3.39-21.1-4.41t-20.25-1q-9.57,0-24.44,1.33L803,89.12l-.36,22.12-.36,24.55q13.07.72,24.05.73c7.43,0,13.62-.25,18.63-.73s7.92-1,8.76-1.51a5.06,5.06,0,0,0,1.94-3,44.51,44.51,0,0,0,1.15-7.92l.48-7.5,1-1h5.57l1,1q-.24,13.18-.61,26.48l.61,27.21-1,1h-5.57l-1-1-.84-7.26c-.73-5.64-1.26-9-1.58-10.09a5.27,5.27,0,0,0-2.23-2.84c-1.18-.81-4.18-1.45-9-1.94s-11.49-.72-19.95-.72q-7,0-21.4.6-.62,10.16-.6,33.85,0,25.4.6,37.37h22.24q29.4,0,36.76-.72a48.91,48.91,0,0,0,14-3.51c.73-1.86,1.91-6.15,3.57-12.88s2.6-10.95,2.84-12.64l1.21-.84h5.8l1,.84a170.21,170.21,0,0,0-2.11,18.14q-1,12.95-1,22.13l-.86,1q-23.09-.74-60.45-.73L792.39,229q-11.5,0-23.95,1l-1-1v-4l1-1.21c4.76-2.42,7.47-3.93,8.16-4.54s1.25-7.65,1.7-21.16.66-23.8.66-30.89V122.85l-.12-27.44q0-9-.25-14.57a45.8,45.8,0,0,0-.84-8,9.17,9.17,0,0,0-1.39-3.38,5.92,5.92,0,0,0-2.55-1.63,27.49,27.49,0,0,0-6-1.16l-9.2-.72-1-.84Z"/><path class="cls-1" d="M908.1,229.86,907,228.78v-5.57l1.09-1a85.08,85.08,0,0,0,11.79-.85c2.94-.48,4.84-1.29,5.68-2.42a11.27,11.27,0,0,0,1.69-5.44q.43-3.73.85-16.93t.42-18.86V80.05q0-6.17-2.23-9.13a9.82,9.82,0,0,0-6.11-3.75,81.38,81.38,0,0,0-13.18-.9l-1-1V59.62l1-1.1q16.69.61,21.88.61c8.15,0,14.83-.2,20.08-.61l38.58,50.06,56.7,71.1q10.27,12.94,20.92,24.55V110.64q0-4.35-.42-18.56c-.29-9.47-.62-15.48-1-18s-1.11-4.25-2.11-5.13-2.9-1.56-5.69-2a84.82,84.82,0,0,0-11.3-.79l-1-1V59.62l1-1.1q9.8.61,27.93.61,16.56,0,24-.61l1.1,1.1v5.55l-1,1a79.75,79.75,0,0,0-12.34.91c-2.9.52-4.7,1.39-5.43,2.6a13.64,13.64,0,0,0-1.52,5.32c-.29,2.34-.56,7.9-.84,16.69s-.42,15.11-.42,19v57.43l.11,33.26q.24,16.32.49,32.77-6-2.07-20.93-5.08l-8.58-10.16-25.76-31.44L939.54,85v92.75q0,5.56.42,19.83t1,17.29a9.7,9.7,0,0,0,1.57,4.17c.64.77,2,1.48,4.18,2.12s6.54,1,13.23,1.09l1,1v5.68l-1,1a172.12,172.12,0,0,0-20.31-.84Q921.65,229,908.1,229.86Z"/><path class="cls-1" d="M1114.74,59l1-.84q41.47.72,53.08.72,39.68,0,70.62-.72l.6.84q-3,11.61-4.47,36.4l-.73,1h-5.92l-1.09-1c.07-.73.12-1.37.12-1.94a119.62,119.62,0,0,0-1.56-19.59q-7.63-3.39-21.11-4.41t-20.25-1q-9.55,0-24.43,1.33l-.49,19.35-.35,22.12-.36,24.55q13.05.72,24.05.73t18.62-.73c5-.48,7.93-1,8.77-1.51a5.11,5.11,0,0,0,1.94-3,45.48,45.48,0,0,0,1.15-7.92l.48-7.5,1-1h5.57l1,1q-.24,13.18-.6,26.48l.6,27.21-1,1h-5.57l-1-1-.84-7.26c-.73-5.64-1.26-9-1.58-10.09a5.24,5.24,0,0,0-2.24-2.84c-1.17-.81-4.17-1.45-9-1.94s-11.49-.72-20-.72q-7,0-21.4.6-.61,10.16-.61,33.85,0,25.4.61,37.37h22.24q29.39,0,36.76-.72a48.76,48.76,0,0,0,14-3.51,132.81,132.81,0,0,0,3.57-12.88q2.49-10.09,2.84-12.64l1.21-.84h5.81l1,.84a167.55,167.55,0,0,0-2.11,18.14q-1,12.95-1,22.13l-.85,1q-23.1-.74-60.45-.73l-32.89-.24q-11.51,0-23.94,1l-1-1v-4l1-1.21q7.13-3.63,8.16-4.54t1.69-21.16q.67-20.25.67-30.89V122.85l-.12-27.44q0-9-.25-14.57a45.8,45.8,0,0,0-.84-8,9.32,9.32,0,0,0-1.4-3.38,5.94,5.94,0,0,0-2.54-1.63,27.48,27.48,0,0,0-6-1.16l-9.19-.72-1-.84ZM1231.18,4.59l-25.38,19-24.19,18.86-1.82.49-3-2.9.23-1.7,17.41-21q.38-.36,11.5-14.15L1228.53,0l1.21.85Z"/><path class="cls-1" d="M1266.73,187.42l1-1h5.93l1,1c.39,10.32,1,16.63,1.63,18.93s2.86,4.71,6.53,7.25a46.81,46.81,0,0,0,14.63,6.23,71.83,71.83,0,0,0,18.44,2.42,54.32,54.32,0,0,0,23-4.72,36.07,36.07,0,0,0,15.89-13.84,38,38,0,0,0,5.69-20.5,33.16,33.16,0,0,0-2.72-13.91,23.65,23.65,0,0,0-7.62-9.48,34.48,34.48,0,0,0-11.19-5.33q-6.29-1.74-18.73-3.81-12.11-1.93-18.93-3.5a64.7,64.7,0,0,1-13.61-4.84,36.45,36.45,0,0,1-11.3-8.28,37.93,37.93,0,0,1-7.26-12.34,44.59,44.59,0,0,1-2.71-15.66q0-22.61,15.71-37.06t42.21-14.45a112.43,112.43,0,0,1,22.91,2.6,93.59,93.59,0,0,1,22.56,7.68l.83,1.46q-2.65,11.12-3.25,31.67l-1.09,1H1360l-1-.84q-.24-14.52-.73-18.26t-11-9.32a48.29,48.29,0,0,0-22.86-5.56A45.47,45.47,0,0,0,1305.19,69,28.16,28.16,0,0,0,1291.65,82a38.58,38.58,0,0,0-4.6,18,27.48,27.48,0,0,0,2.79,12.64,23.61,23.61,0,0,0,7.18,8.7,31,31,0,0,0,10.29,4.78q5.85,1.57,21.46,3.87,21.39,3,31.13,7.31a34.75,34.75,0,0,1,15.61,13.6q5.85,9.33,5.86,22.5,0,25.75-21,42.92t-50.85,17.17q-25,0-43.89-9l-.73-1.57Q1266.14,215.35,1266.73,187.42Z"/><path class="cls-1" d="M1394.31,58.17l15.12.48q14.86.48,19.46.48,4.11,0,34.71-1l1,.84v6.05l-1,.84q-8.36.24-12.88.72a15.91,15.91,0,0,0-6.6,1.82c-1.37.89-2.28,3-2.71,6.23a105.64,105.64,0,0,0-.67,13.6l-.25,27.81v56l.13,23.58q.11,13.65.73,17.65c.39,2.66,1,4.43,1.75,5.32a9.09,9.09,0,0,0,4.41,2.24q3.26.9,16.09,1.39l1,.72V229l-1,1q-.61,0-21.29-.73-8.6-.24-13.42-.24-3.75,0-34.58,1l-1-1V223l1-.72a128.34,128.34,0,0,0,15-1.21c2.5-.49,4.18-1.11,5-1.88s1.53-2.4,2.06-4.89.81-8.06.9-16.69l.12-25.51v-56l-.24-23.58q-.12-13.78-.67-17.77c-.36-2.66-.93-4.43-1.69-5.32a8.82,8.82,0,0,0-4.41-2.18c-2.17-.56-7.54-1-16.08-1.33l-1-.84V59Z"/><path class="cls-1" d="M1639.28,208.58l-4.59,11.25a124.53,124.53,0,0,1-57.32,13.66q-43.63,0-70.91-24.78t-27.27-64.82q0-27.57,13.61-48.18a84.36,84.36,0,0,1,35.91-30.84q22.3-10.22,50.12-10.21a151.08,151.08,0,0,1,31.8,3.38,134.13,134.13,0,0,1,26.23,8.1l.86,1.21q-2.79,6.78-5.2,33.5l-.85,1H1626l-1-1-1.21-20.56a65.37,65.37,0,0,0-21.35-10.94,86.34,86.34,0,0,0-26-3.93q-20.43,0-36.64,8.77a61.05,61.05,0,0,0-25.15,25.38q-8.94,16.64-8.94,40.7t10.52,42.44a71.91,71.91,0,0,0,28.71,28q18.21,9.8,42.5,9.79a101.65,101.65,0,0,0,20.68-2.05,77.47,77.47,0,0,0,16.5-5.08,74.94,74.94,0,0,0,12.64-7.38Z"/><path class="cls-1" d="M1651.5,230l-1.09-1v-6.29l1.09-1q8.84-.12,11.37-.9a9.76,9.76,0,0,0,4.53-3.15q2-2.36,8-15.41l12.69-27.58,32.9-74.48q9.3-21.88,18.5-43.77h7.86L1799,177.87l6.89,16.2q3,6.9,6.95,15t5.45,9.56a10.23,10.23,0,0,0,3.74,2.24q2.23.78,10,.9l1,1V229l-1,1q-12.81-1.1-23.09-1.1-20.07.62-40.14,1.1l-1-1v-6.29l1-1q13.55-.24,16.93-1.14a4,4,0,0,0,3.38-4.18,20.77,20.77,0,0,0-1.69-7l-14.88-36.88h-70l-13.19,31c-2.33,5.55-3.5,9.63-3.5,12.21,0,2,1.08,3.51,3.27,4.47s7.65,1.49,16.43,1.57l1.09,1V229l-1,1q-15.6-1-27.33-1Q1665.05,229,1651.5,230Zm55.13-67.84h61.18l-30.33-72.91Z"/><path class="cls-1" d="M577.93,306.87l1-.86q30.39,1,35,1,4.17,0,35.17-1l1,.86V313l-1,.86q-8.45.24-13,.73a15.86,15.86,0,0,0-6.68,1.84q-2.08,1.35-2.76,6.31a108.58,108.58,0,0,0-.67,13.78l-.25,28.19v54.16q0,20.34.25,28.43l.6,21.19h25q29.89,0,37.3-.73a50.86,50.86,0,0,0,14.29-3.55c.89-2.05,2.17-6.74,3.85-14.1s2.56-11.59,2.64-12.74l1.1-1h6l.87,1q-1,4.9-2,19t-1.05,22.79l-1,1q-23.28-.75-61.15-.74l-35.77-.24q-12.27,0-25,1l-1-1v-4l1-1.22q7.61-3.93,8.34-4.78t1.53-15.81q.79-15,.8-36V364.7l-.24-23.9q-.14-14-.68-18t-1.72-5.39c-.78-.9-2.26-1.63-4.47-2.21s-7.64-1-16.3-1.34l-1-.86Z"/><path class="cls-1" d="M735.62,306.87l1-.86q42,.74,53.79.73,40.19,0,71.55-.73l.62.86q-3.08,11.76-4.53,36.87l-.74,1h-6l-1.11-1a18.11,18.11,0,0,0,.12-1.95,119.31,119.31,0,0,0-1.59-19.85q-7.71-3.44-21.38-4.48t-20.52-1q-9.69,0-24.76,1.35l-.49,19.6-.36,22.43-.37,24.87q13.23.74,24.39.74t18.87-.74q7.59-.74,8.87-1.53a5.09,5.09,0,0,0,2-3.06,46.64,46.64,0,0,0,1.16-8l.49-7.59,1-1h5.64l1,1q-.26,13.35-.61,26.83l.61,27.57-1,1h-5.64l-1-1-.85-7.35q-1.11-8.58-1.59-10.24a5.43,5.43,0,0,0-2.28-2.87c-1.18-.82-4.22-1.47-9.12-2s-11.64-.73-20.23-.73q-7.1,0-21.68.61-.62,10.29-.62,34.31,0,25.74.62,37.86h22.55q29.76,0,37.24-.73a49.31,49.31,0,0,0,14.22-3.55c.73-1.89,1.94-6.23,3.61-13.05s2.64-11.09,2.89-12.81l1.22-.86h5.88l1,.86a172.74,172.74,0,0,0-2.13,18.38q-1.06,13.11-1,22.43l-.85,1q-23.42-.75-61.27-.74l-33.33-.24q-11.64,0-24.26,1l-1-1v-4l1-1.22q7.23-3.67,8.27-4.6t1.71-21.44q.68-20.52.68-31.31v-45l-.12-27.82q0-9.06-.25-14.76a45.42,45.42,0,0,0-.86-8.15,9.29,9.29,0,0,0-1.41-3.43,6,6,0,0,0-2.57-1.66,29,29,0,0,0-6.06-1.16l-9.31-.73-1-.86Z"/><path class="cls-1" d="M888.06,480,887,478.9v-5.64l1.11-1a85.36,85.36,0,0,0,11.94-.86c3-.5,4.9-1.31,5.76-2.45a11.71,11.71,0,0,0,1.72-5.52q.43-3.79.85-17.15t.44-19.12v-99c0-4.16-.77-7.24-2.28-9.25a9.91,9.91,0,0,0-6.18-3.8,83.06,83.06,0,0,0-13.36-.92l-1-1v-5.76l1-1.11c11.27.42,18.67.61,22.19.61,8.24,0,15-.19,20.33-.61l39.08,50.73,57.47,72q10.43,13.11,21.2,24.87V359.18c0-2.93-.14-9.21-.43-18.8s-.63-15.69-1-18.26-1.12-4.31-2.14-5.21-2.94-1.57-5.76-2a85.34,85.34,0,0,0-11.46-.79l-1-1v-5.63l1-1.11q9.93.63,28.3.61,16.8,0,24.39-.61l1.1,1.11v5.63l-1,1a81.78,81.78,0,0,0-12.49.91c-2.94.54-4.78,1.41-5.52,2.64a13.91,13.91,0,0,0-1.53,5.39q-.44,3.56-.85,16.91t-.44,19.23v58.21l.13,33.69q.24,16.55.49,33.21-6.13-2.09-21.2-5.14l-8.71-10.3L1003,437,919.92,333.21v94q0,5.64.42,20.1t1,17.52A9.73,9.73,0,0,0,923,469q1,1.17,4.22,2.14t13.42,1.11l1,1V479l-1,1a173.77,173.77,0,0,0-20.58-.85Q901.77,479.15,888.06,480Z"/><path class="cls-1" d="M1272.07,412.37V416l-.48,1.47-6,3.56a7.49,7.49,0,0,0-2.57,2.08c-.24.48-.55,2.92-.91,7.29s-.55,9.7-.55,16a216.59,216.59,0,0,0,1.34,23.16l-.73,1.22a191.2,191.2,0,0,1-69,12.87q-27.2,0-49.13-10.3a81.2,81.2,0,0,1-34.81-30.51q-12.85-20.21-12.86-48,0-42.39,29-67.39t75.67-25q34.29,0,61.62,11.65l.87,1.34q-2.2,8.21-5.15,34.43l-1,.86h-5.64l-1-1-.62-13q-.37-6.37-.79-7.47a8.82,8.82,0,0,0-2.64-2.88q-2.2-1.79-11.34-5.64a92.39,92.39,0,0,0-18.31-5.64,104.36,104.36,0,0,0-19.73-1.78q-22.42,0-39.7,9.32a60.34,60.34,0,0,0-26.05,27.14q-8.76,17.83-8.75,39.64a94.78,94.78,0,0,0,9.43,42,71.61,71.61,0,0,0,27.08,30.33q17.65,10.9,41.05,10.9a110.56,110.56,0,0,0,20.77-2,61.76,61.76,0,0,0,17.46-5.7q1.11-3.93,1.11-15.8v-13.6q0-9.69-1.24-12.07c-.81-1.6-2.84-2.72-6.06-3.38s-10.19-1.06-20.89-1.22l-1.1-1.1v-5.39l1.1-1.11,7.48.25q19.23.62,31.36.61,7,0,20.47-.73Z"/><path class="cls-1" d="M1289,306.87l1-.86q42,.74,53.79.73,40.18,0,71.57-.73l.6.86q-3.06,11.76-4.53,36.87l-.73,1h-6l-1.1-1c.07-.73.12-1.38.12-1.95a119.31,119.31,0,0,0-1.59-19.85q-7.72-3.44-21.39-4.48t-20.52-1q-9.69,0-24.74,1.35l-.5,19.6-.37,22.43-.37,24.87q13.24.74,24.39.74t18.87-.74q7.59-.74,8.89-1.53a5.22,5.22,0,0,0,2-3.06,47.68,47.68,0,0,0,1.16-8l.48-7.59,1-1h5.63l1,1q-.25,13.35-.62,26.83l.62,27.57-1,1h-5.63l-1-1-.85-7.35q-1.11-8.58-1.59-10.24a5.34,5.34,0,0,0-2.28-2.87c-1.18-.82-4.22-1.47-9.12-2s-11.64-.73-20.21-.73c-4.75,0-12,.21-21.7.61q-.62,10.29-.6,34.31,0,25.74.6,37.86h22.55q29.77,0,37.25-.73a49.33,49.33,0,0,0,14.21-3.55,134,134,0,0,0,3.62-13.05c1.67-6.83,2.63-11.09,2.88-12.81l1.22-.86h5.89l1,.86a166.12,166.12,0,0,0-2.15,18.38q-1,13.11-1,22.43l-.86,1q-23.4-.75-61.26-.74l-33.33-.24q-11.65,0-24.26,1l-1-1v-4l1-1.22q7.21-3.67,8.27-4.6t1.72-21.44q.66-20.52.66-31.31v-45l-.12-27.82c0-6-.07-11-.25-14.76a45.66,45.66,0,0,0-.85-8.15,9.12,9.12,0,0,0-1.41-3.43,6,6,0,0,0-2.58-1.66,28.71,28.71,0,0,0-6.06-1.16l-9.31-.73-1-.86Z"/><path class="cls-1" d="M1438.47,306.87l1-.86q22.44,1,34.94,1,13.83,0,37.36-.85c5.81-.17,10-.25,12.62-.25q31,0,42,11.28a36.89,36.89,0,0,1,11,26.71,41.87,41.87,0,0,1-5.39,20.22,48.1,48.1,0,0,1-15.93,17q-10.55,7.05-29,10.59,3.42,4.78,12.37,16.55l17.4,23q8.45,11.4,18.14,24.08c6.44,8.46,10.62,13.23,12.49,14.34a15.55,15.55,0,0,0,4.84,2,39.41,39.41,0,0,0,6.44.37l1,1v5.75l-1.1,1.11a114.6,114.6,0,0,0-14-.73q-8.72,0-19,.73-8.45-10.29-26.58-35.65-21.08-29.42-43.13-54.53l1.22-3.8q6.38.36,9.93.36,21.21,0,33.2-10.16t12-28.19q0-16.17-10.78-24.44t-29.17-8.28a81,81,0,0,0-24.26,3.56q-1.85,2.7-1.84,45.95v56.73l.12,23.89c.09,9.24.32,15.2.74,17.9s1,4.49,1.77,5.39,2.27,1.65,4.48,2.26,7.63,1.09,16.29,1.42l1,.73v6.13l-1,1q-.62,0-21.56-.74-8.71-.24-13.61-.24-3.79,0-35,1l-1-1V473l1-.73a128.35,128.35,0,0,0,15.21-1.23c2.53-.49,4.22-1.13,5.08-1.9s1.55-2.43,2.08-5,.84-8.17.92-16.91l.13-25.86V364.7l-.25-23.9q-.13-14-.68-18c-.36-2.69-.94-4.49-1.72-5.39s-2.26-1.63-4.47-2.21-7.63-1-16.3-1.34l-1-.86Z"/><path class="cls-1" d="M1608.18,306l15.31.49q15.08.48,19.73.48,4.17,0,35.17-1l1,.86V313l-1,.86q-8.46.24-13.05.73a15.91,15.91,0,0,0-6.68,1.84c-1.38.9-2.31,3-2.75,6.31a106.41,106.41,0,0,0-.68,13.78L1655,364.7v56.73l.12,23.89q.14,13.86.74,17.9t1.78,5.39a9.16,9.16,0,0,0,4.47,2.26c2.21.62,7.63,1.09,16.3,1.42l1,.73v6.13l-1,1q-.62,0-21.57-.74-8.7-.24-13.6-.24-3.79,0-35,1l-1-1V473l1-.73a128.09,128.09,0,0,0,15.19-1.23c2.53-.49,4.23-1.13,5.09-1.9s1.55-2.43,2.08-5,.83-8.17.92-16.91l.12-25.86V364.7l-.25-23.9c-.07-9.31-.31-15.31-.66-18s-.94-4.49-1.72-5.39-2.27-1.63-4.47-2.21-7.64-1-16.3-1.34l-1-.86v-6.12Z"/><path class="cls-1" d="M1694.44,306.87l1-.86q42,.74,53.79.73,40.18,0,71.57-.73l.6.86q-3.06,11.76-4.53,36.87l-.73,1h-6l-1.1-1c.07-.73.12-1.38.12-1.95a119.31,119.31,0,0,0-1.59-19.85q-7.72-3.44-21.39-4.48t-20.52-1q-9.69,0-24.75,1.35l-.49,19.6L1740,359.8l-.37,24.87q13.24.74,24.39.74t18.86-.74q7.61-.74,8.89-1.53a5.18,5.18,0,0,0,2-3.06,47.68,47.68,0,0,0,1.16-8l.48-7.59,1-1H1802l1,1c-.18,8.9-.37,17.85-.62,26.83l.62,27.57-1,1h-5.63l-1-1-.85-7.35q-1.11-8.58-1.59-10.24a5.39,5.39,0,0,0-2.28-2.87c-1.18-.82-4.22-1.47-9.12-2s-11.65-.73-20.22-.73q-7.11,0-21.69.61-.62,10.29-.61,34.31,0,25.74.61,37.86h22.55q29.77,0,37.25-.73a49.33,49.33,0,0,0,14.21-3.55c.74-1.89,1.94-6.23,3.62-13.05s2.63-11.09,2.88-12.81l1.22-.86h5.89l1,.86a166.12,166.12,0,0,0-2.15,18.38q-1,13.11-1,22.43l-.86,1q-23.4-.75-61.26-.74l-33.33-.24q-11.65,0-24.26,1l-1-1v-4l1-1.22q7.22-3.67,8.27-4.6t1.72-21.44q.66-20.52.66-31.31v-45l-.12-27.82c0-6-.07-11-.25-14.76a45.66,45.66,0,0,0-.85-8.15,9.29,9.29,0,0,0-1.41-3.43,6,6,0,0,0-2.58-1.66,28.85,28.85,0,0,0-6.06-1.16l-9.31-.73-1-.86Z"/><rect class="cls-1" x="577.93" y="513" width="1255.07" height="6.32"/><path class="cls-1" d="M235.64,53.15C200.1,20.78,133,26.66,132.34,26.73c-.39,0-34.93,3.19-67.12,28.24C22.1,88.52,3.31,143.46,9.36,218.24A268.8,268.8,0,0,0,24,286.44l3.34,9C72.56,410.64,187.13,485.14,241.27,509.87L240.2,262.44l6.22-6.62a4.15,4.15,0,0,1,3.14,4V516.23a4.16,4.16,0,0,1-1.86,3.46,4.1,4.1,0,0,1-2.29.69,4.19,4.19,0,0,1-1.62-.33c-33-14-89.07-47.74-138.43-96.56C43,361.79,6.94,291.05,1.1,218.91-6.76,121.82,29,72.47,60.46,48.17c34.13-26.4,69.66-29.58,71.15-29.7C134.46,18.2,203,12.22,241.22,47"/><path class="cls-1" d="M33.36,82.09a157.93,157.93,0,0,0,14.38,34.55C82.53,179.49,126.93,189,128.8,189.4a4.56,4.56,0,0,0,.82.08,4.15,4.15,0,0,0,.82-8.21c-.42-.08-42.65-9.4-75.45-68.64A146.41,146.41,0,0,1,40.14,75.18Z"/><path class="cls-1" d="M17.65,112.86a175.6,175.6,0,0,0,9.54,19.9C48.35,171,72.86,189,89.69,197.46a4.14,4.14,0,0,0,3.71-7.41c-15.78-7.9-38.83-24.94-59-61.31a153.64,153.64,0,0,1-11.72-26.17Z"/><path class="cls-1" d="M27.47,292.36H18c0-61.77,53-112,118.16-112,51.71,0,98.4,31.74,113.31,78.64l-9.2,3.89c-13.67-43-56.48-73.05-104.11-73.05C76.22,189.82,27.47,235.82,27.47,292.36Z"/><path class="cls-1" d="M235.64,53.15C200.1,20.78,133,26.66,132.34,26.73c-.39,0-34.93,3.19-67.12,28.24C22.1,88.52,3.31,143.46,9.36,218.24A268.8,268.8,0,0,0,24,286.44l3.34,9C72.56,410.64,187.13,485.14,241.27,509.87L240.2,262.44l6.22-6.62a4.15,4.15,0,0,1,3.14,4V516.23a4.16,4.16,0,0,1-1.86,3.46,4.1,4.1,0,0,1-2.29.69,4.19,4.19,0,0,1-1.62-.33c-33-14-89.07-47.74-138.43-96.56C43,361.79,6.94,291.05,1.1,218.91-6.76,121.82,29,72.47,60.46,48.17c34.13-26.4,69.66-29.58,71.15-29.7C134.46,18.2,203,12.22,241.22,47"/><path class="cls-1" d="M33.36,82.09a157.93,157.93,0,0,0,14.38,34.55C82.53,179.49,126.93,189,128.8,189.4a4.56,4.56,0,0,0,.82.08,4.15,4.15,0,0,0,.82-8.21c-.42-.08-42.65-9.4-75.45-68.64A146.41,146.41,0,0,1,40.14,75.18Z"/><path class="cls-1" d="M17.65,112.86a175.6,175.6,0,0,0,9.54,19.9C48.35,171,72.86,189,89.69,197.46a4.14,4.14,0,0,0,3.71-7.41c-15.78-7.9-38.83-24.94-59-61.31a153.64,153.64,0,0,1-11.72-26.17Z"/><path class="cls-1" d="M27.47,292.36H18c0-61.77,53-112,118.16-112,51.71,0,98.4,31.74,113.31,78.64l-9.2,3.89c-13.67-43-56.48-73.05-104.11-73.05C76.22,189.82,27.47,235.82,27.47,292.36Z"/><path class="cls-1" d="M204.79,494.88a455.89,455.89,0,0,0,42.08-42.94L246,440.16a448.6,448.6,0,0,1-48.53,50.18Z"/><path class="cls-1" d="M247.39,381.89A456,456,0,0,1,166.94,470l-7.27-4.68A447,447,0,0,0,245,370.78Z"/><path class="cls-1" d="M246,305.53A453,453,0,0,1,132,442.34l-6.42-5.44c35.4-28.29,83.7-76.11,119.06-146.69Z"/><path class="cls-1" d="M93.94,406.34c39.88-31.08,98.45-88.29,135.39-176.66l5.65,7.88c-37.39,86.61-95.06,143.23-135.07,174.59"/><path class="cls-1" d="M206.52,205.81c-37.8,86.35-95.67,142.62-135.42,173.55l-4.92-6.64c39.11-30.45,96.29-86.08,133.37-171.66Z"/><path class="cls-1" d="M171.32,188.5C134.82,263.3,83.83,313.6,46.89,343l-4.43-7c36-28.69,85.39-77.61,121-150.18Z"/><path class="cls-1" d="M25.81,303.92A454.29,454.29,0,0,0,125.38,188.5l-10,.45a446.05,446.05,0,0,1-92.87,107Z"/><path class="cls-1" d="M286.39,47C324.61,12.22,393.15,18.2,396,18.47c1.49.12,37,3.3,71.15,29.7,31.42,24.3,67.22,73.65,59.36,170.74-5.83,72.14-41.89,142.88-104.26,204.58C372.89,472.31,316.83,506,283.82,520.05a4.15,4.15,0,0,1-5.77-3.82V259.84a4.15,4.15,0,0,1,3.15-4l6.22,6.62-1.08,247.43c54.14-24.73,168.72-99.23,213.89-214.46l3.35-9a268.79,268.79,0,0,0,14.67-68.2c6-74.78-12.74-129.72-55.86-163.27-32.19-25-66.73-28.21-67.12-28.24-.67-.07-67.76-5.95-103.3,26.42"/><path class="cls-1" d="M494.26,82.09a158,158,0,0,1-14.39,34.55c-34.79,62.85-79.18,72.38-81.06,72.76a4.56,4.56,0,0,1-.82.08,4.15,4.15,0,0,1-.82-8.21c.43-.08,42.66-9.4,75.45-68.64a146,146,0,0,0,14.85-37.45Z"/><path class="cls-1" d="M510,112.86a173.91,173.91,0,0,1-9.54,19.9c-21.16,38.22-45.67,56.28-62.5,64.7a4.14,4.14,0,0,1-3.71-7.41c15.79-7.9,38.83-24.94,59-61.31a152.86,152.86,0,0,0,11.72-26.17Z"/><path class="cls-1" d="M500.14,292.36h9.49c0-61.77-53-112-118.16-112-51.72,0-98.41,31.74-113.32,78.64l9.21,3.89c13.66-43,56.47-73.05,104.11-73.05C451.39,189.82,500.14,235.82,500.14,292.36Z"/><path class="cls-1" d="M286.39,47C324.61,12.22,393.15,18.2,396,18.47c1.49.12,37,3.3,71.15,29.7,31.42,24.3,67.22,73.65,59.36,170.74-5.83,72.14-41.89,142.88-104.26,204.58C372.89,472.31,316.83,506,283.82,520.05a4.15,4.15,0,0,1-5.77-3.82V259.84a4.15,4.15,0,0,1,3.15-4l6.22,6.62-1.08,247.43c54.14-24.73,168.72-99.23,213.89-214.46l3.35-9a268.79,268.79,0,0,0,14.67-68.2c6-74.78-12.74-129.72-55.86-163.27-32.19-25-66.73-28.21-67.12-28.24-.67-.07-67.76-5.95-103.3,26.42"/><path class="cls-1" d="M494.26,82.09a158,158,0,0,1-14.39,34.55c-34.79,62.85-79.18,72.38-81.06,72.76a4.56,4.56,0,0,1-.82.08,4.15,4.15,0,0,1-.82-8.21c.43-.08,42.66-9.4,75.45-68.64a146,146,0,0,0,14.85-37.45Z"/><path class="cls-1" d="M510,112.86a173.91,173.91,0,0,1-9.54,19.9c-21.16,38.22-45.67,56.28-62.5,64.7a4.14,4.14,0,0,1-3.71-7.41c15.79-7.9,38.83-24.94,59-61.31a152.86,152.86,0,0,0,11.72-26.17Z"/><path class="cls-1" d="M500.14,292.36h9.49c0-61.77-53-112-118.16-112-51.72,0-98.41,31.74-113.32,78.64l9.21,3.89c13.66-43,56.47-73.05,104.11-73.05C451.39,189.82,500.14,235.82,500.14,292.36Z"/><path class="cls-1" d="M322.83,494.88a457.14,457.14,0,0,1-42.09-42.94l.87-11.78a448.6,448.6,0,0,0,48.53,50.18Z"/><path class="cls-1" d="M280.22,381.89A456.35,456.35,0,0,0,360.67,470l7.28-4.68a446.77,446.77,0,0,1-85.3-94.57Z"/><path class="cls-1" d="M281.61,305.53a453.15,453.15,0,0,0,114,136.81l6.43-5.44C366.64,408.61,318.34,360.79,283,290.21Z"/><path class="cls-1" d="M433.68,406.34c-39.88-31.08-98.46-88.29-135.39-176.66l-5.66,7.88C330,324.17,387.69,380.79,427.7,412.15"/><path class="cls-1" d="M321.1,205.81c37.79,86.35,95.67,142.62,135.41,173.55l4.93-6.64c-39.11-30.45-96.3-86.08-133.37-171.66Z"/><path class="cls-1" d="M356.3,188.5C392.8,263.3,443.78,313.6,480.72,343l4.43-7c-36-28.69-85.38-77.61-121-150.18Z"/><path class="cls-1" d="M501.8,303.92A454.49,454.49,0,0,1,402.23,188.5l10,.45a445.84,445.84,0,0,0,92.88,107Z"/></svg>